<?xml version="1.0" standalone="no"?>
<!DOCTYPE svg PUBLIC "-//W3C//DTD SVG 20010904//EN"
 "http://www.w3.org/TR/2001/REC-SVG-20010904/DTD/svg10.dtd">
<svg version="1.0" xmlns="http://www.w3.org/2000/svg"
 width="1280.000000pt" height="875.000000pt" viewBox="0 0 1280.000000 875.000000"
 preserveAspectRatio="xMidYMid meet">
<metadata>
Created by potrace 1.15, written by Peter Selinger 2001-2017
</metadata>
<g transform="translate(0.000000,875.000000) scale(0.100000,-0.100000)"
fill="#000000" stroke="none">
<path d="M8050 8686 c-70 -41 -125 -66 -165 -75 -212 -44 -376 -136 -425 -236
-21 -42 -33 -51 -348 -232 -314 -181 -331 -189 -436 -215 -193 -48 -344 -139
-386 -231 -16 -35 -44 -53 -346 -228 -181 -104 -340 -192 -354 -195 -130 -29
-198 -51 -276 -89 -99 -48 -164 -103 -191 -162 -16 -35 -48 -55 -348 -228
-317 -182 -335 -191 -430 -213 -115 -26 -259 -91 -322 -146 -23 -20 -51 -56
-62 -80 -21 -42 -35 -51 -348 -231 -309 -179 -331 -190 -433 -216 -123 -31
-194 -59 -265 -104 -58 -37 -122 -104 -130 -138 -5 -19 -77 -64 -331 -211
-347 -201 -336 -196 -464 -226 -165 -38 -325 -138 -368 -228 -18 -39 8 -23
-489 -309 -165 -95 -193 -108 -285 -129 -186 -44 -340 -135 -391 -232 -20 -38
-41 -53 -237 -166 l-215 -125 -3 -674 -2 -674 1652 -953 c909 -525 1718 -993
1798 -1040 80 -48 384 -225 676 -393 l531 -307 564 326 c310 179 574 331 585
336 19 9 105 -38 604 -326 l582 -335 1164 672 1165 672 -1 673 c0 369 2 672 5
672 2 0 266 -151 585 -335 l581 -335 1154 666 1155 666 0 1362 -1 1361 -223
128 c-171 98 -226 134 -230 152 -19 74 -200 184 -377 228 -93 24 -156 54 -294
141 -27 17 -144 86 -259 152 -171 99 -214 128 -229 155 -48 91 -194 178 -370
223 -90 23 -123 39 -442 223 -258 148 -345 204 -350 220 -8 35 -95 115 -162
150 -65 35 -231 93 -267 93 -22 0 -80 32 -509 278 -190 109 -221 130 -237 163
-43 83 -202 177 -375 219 -67 17 -118 39 -201 86 -61 35 -113 64 -115 63 -2
-1 -51 -29 -109 -63z m1290 -3304 c624 -360 1139 -658 1143 -662 14 -12 -213
-137 -263 -145 -79 -13 -223 -63 -285 -100 -75 -45 -141 -109 -155 -149 -9
-27 -42 -49 -231 -158 l-221 -127 -230 132 c-193 111 -233 138 -248 167 -53
101 -190 176 -435 240 -22 6 -84 36 -137 68 -53 31 -205 120 -337 196 -174
102 -241 146 -245 161 -7 29 -74 97 -128 131 -60 38 -163 79 -260 103 -60 14
-114 38 -191 82 -59 34 -107 64 -107 68 1 3 260 155 578 338 495 285 579 330
597 321 11 -6 531 -306 1155 -666z m-3505 -2012 c635 -366 1154 -668 1155
-672 1 -15 -227 -136 -270 -143 -80 -13 -224 -63 -285 -100 -75 -45 -142 -109
-155 -149 -9 -27 -41 -49 -228 -156 -119 -69 -221 -125 -227 -125 -5 0 -112
59 -236 130 -209 120 -228 133 -250 174 -44 84 -192 168 -371 214 -86 22 -119
38 -290 139 -106 64 -257 152 -334 197 -111 64 -145 88 -154 112 -34 80 -198
179 -373 223 -75 19 -123 39 -207 88 -60 34 -107 64 -105 66 13 14 1162 671
1168 669 5 -1 527 -302 1162 -667z"/>
</g>
</svg>
