<?xml version="1.0" standalone="no"?>
<!DOCTYPE svg PUBLIC "-//W3C//DTD SVG 20010904//EN"
 "http://www.w3.org/TR/2001/REC-SVG-20010904/DTD/svg10.dtd">
<svg version="1.0" xmlns="http://www.w3.org/2000/svg"
 width="1044.000000pt" height="1280.000000pt" viewBox="0 0 1044.000000 1280.000000"
 preserveAspectRatio="xMidYMid meet">
<metadata>
Created by potrace 1.15, written by Peter Selinger 2001-2017
</metadata>
<g transform="translate(0.000000,1280.000000) scale(0.100000,-0.100000)"
fill="#000000" stroke="none">
<path d="M9840 12509 c-327 -160 -1004 -490 -1505 -734 -1766 -859 -3199
-1557 -3965 -1930 -426 -207 -1101 -536 -1500 -730 -399 -194 -1105 -538
-1570 -764 -465 -227 -945 -460 -1067 -519 -122 -59 -222 -109 -223 -112 0 -3
107 -45 237 -92 131 -48 1352 -492 2713 -988 1361 -496 3261 -1187 4223 -1537
l1747 -636 0 -2234 0 -2233 755 0 755 0 0 6400 c0 3520 -1 6400 -2 6399 -2 0
-271 -131 -598 -290z m-914 -6436 c-5 -5 -5076 1840 -5076 1847 1 3 198 100
438 217 382 185 2802 1364 4167 2030 l470 229 3 -2160 c1 -1187 0 -2161 -2
-2163z"/>
</g>
</svg>
